<svg width="20" height="20" viewBox="0 0 20 20" fill="none" xmlns="http://www.w3.org/2000/svg">
<path d="M17.7142 9.135C18.1092 9.65167 18.1092 10.3492 17.7142 10.865C16.47 12.4892 13.485 15.8333 10 15.8333C6.515 15.8333 3.53 12.4892 2.28584 10.865C2.09366 10.6176 1.98933 10.3133 1.98933 10C1.98933 9.68674 2.09366 9.38239 2.28584 9.135C3.53 7.51083 6.515 4.16667 10 4.16667C13.485 4.16667 16.47 7.51083 17.7142 9.135V9.135Z" stroke="#322E35" stroke-width="2" stroke-linecap="round" stroke-linejoin="round"/>
<path d="M10 12.5C11.3807 12.5 12.5 11.3807 12.5 10C12.5 8.61929 11.3807 7.5 10 7.5C8.61929 7.5 7.5 8.61929 7.5 10C7.5 11.3807 8.61929 12.5 10 12.5Z" stroke="#322E35" stroke-width="2" stroke-linecap="round" stroke-linejoin="round"/>
</svg>
