<svg width="25" height="17" viewBox="0 0 25 17" fill="none" xmlns="http://www.w3.org/2000/svg">
<g clip-path="url(#clip0_1_219)">
<path d="M0 0H25V17H0V0Z" fill="#012169"/>
<path d="M2.92969 0L12.4609 6.41042L21.9531 0H25V2.19583L15.625 8.53542L25 14.8396V17H21.875L12.5 10.6604L3.16406 17H0V14.875L9.33594 8.57083L0 2.26667V0H2.92969Z" fill="white"/>
<path d="M16.5625 9.95208L25 15.5833V17L14.4141 9.95208H16.5625ZM9.375 10.6604L9.60938 11.9L2.10938 17H0L9.375 10.6604ZM25 0V0.10625L15.2734 6.76458L15.3516 5.20625L23.0469 0H25ZM0 0L9.33594 6.23333H6.99219L0 1.4875V0Z" fill="#C8102E"/>
<path d="M9.41406 0V17H15.6641V0H9.41406ZM0 5.66667V11.3333H25V5.66667H0Z" fill="white"/>
<path d="M0 6.83542V10.2354H25V6.83542H0ZM10.6641 0V17H14.4141V0H10.6641Z" fill="#C8102E"/>
</g>
<defs>
<clipPath id="clip0_1_219">
<rect width="25" height="17" fill="white"/>
</clipPath>
</defs>
</svg>
