<svg width="145" height="90" viewBox="0 0 145 90" fill="none" xmlns="http://www.w3.org/2000/svg">
<g clip-path="url(#clip0_1_192)">
<path d="M4.68917 87.6521C4.68917 88.0072 4.61621 88.3126 4.47029 88.5693C4.32541 88.8249 4.12895 89.02 3.88089 89.1546C3.63126 89.2909 3.37174 89.3898 3.10283 89.4515C2.83289 89.5142 2.54313 89.5459 2.2341 89.5459C1.67701 89.5459 1.21476 89.3599 0.847361 88.9883C0.481525 88.6168 0.298607 88.1248 0.298607 87.513H1.13451C1.13451 87.8613 1.23717 88.1559 1.44302 88.3968C1.64991 88.6372 1.911 88.7571 2.22628 88.7571C2.43839 88.7571 2.62287 88.7469 2.77921 88.7277C2.93711 88.7062 3.11013 88.6649 3.29878 88.6032C3.48639 88.5399 3.63178 88.4347 3.73497 88.2877C3.83711 88.139 3.88818 87.9495 3.88818 87.7194C3.88818 87.4502 3.82356 87.2319 3.69432 87.0651C3.56404 86.8966 3.39519 86.7767 3.1883 86.7049C2.98297 86.632 2.75576 86.5749 2.5077 86.5324C2.25964 86.4889 2.01053 86.4363 1.76091 86.3747C1.51285 86.3119 1.28564 86.226 1.08031 86.1179C0.874982 86.0088 0.706655 85.8324 0.57585 85.5898C0.445567 85.3455 0.380425 85.0401 0.380425 84.6726C0.380425 84.1535 0.587837 83.7361 1.00266 83.4206C1.418 83.1045 1.874 82.9467 2.37168 82.9467C2.64319 82.9467 2.89959 82.9761 3.13983 83.0355C3.37903 83.0943 3.6 83.1876 3.80324 83.3148C4.00596 83.4443 4.16647 83.6236 4.28425 83.8538C4.40306 84.0839 4.46247 84.3531 4.46247 84.6618H3.64429C3.64429 84.4583 3.60781 84.2892 3.53537 84.1546C3.46189 84.02 3.35715 83.9233 3.22113 83.8645C3.08407 83.804 2.9491 83.7638 2.81621 83.7446C2.6828 83.7248 2.52229 83.7146 2.3352 83.7146C1.57747 83.7146 1.19861 84.0438 1.19861 84.702C1.19861 84.9587 1.28459 85.1628 1.45657 85.3144C1.62958 85.4642 1.84481 85.566 2.10225 85.6192C2.35969 85.6712 2.64007 85.7385 2.94389 85.8211C3.24667 85.9042 3.52652 85.9958 3.78343 86.097C4.04244 86.1994 4.25767 86.382 4.42964 86.6444C4.60266 86.9079 4.68917 87.2438 4.68917 87.6521ZM12.0544 86.1117C12.0544 85.3698 11.9199 84.7845 11.651 84.3565C11.3811 83.929 10.9157 83.7146 10.2549 83.7146C9.04377 83.7146 8.43769 84.5137 8.43769 86.1117C8.43769 86.4668 8.46635 86.7943 8.52315 87.0945C8.58152 87.3931 8.67689 87.6708 8.8103 87.9275C8.94319 88.1842 9.13288 88.3867 9.37834 88.5337C9.62379 88.6824 9.91615 88.7571 10.2549 88.7571C10.5952 88.7571 10.8881 88.6824 11.1335 88.5337C11.3779 88.3867 11.564 88.1831 11.6922 87.9235C11.8188 87.6628 11.9111 87.3841 11.9694 87.0883C12.0262 86.792 12.0544 86.4668 12.0544 86.1117ZM12.9002 86.1117C12.9002 86.7371 12.8079 87.3038 12.6229 87.8099C12.4379 88.3165 12.1414 88.7322 11.7328 89.0579C11.3243 89.383 10.8318 89.5459 10.2549 89.5459C9.67955 89.5459 9.18708 89.383 8.77747 89.0579C8.3689 88.7322 8.06872 88.3165 7.87747 87.8099C7.68725 87.3038 7.59241 86.7371 7.59241 86.1117C7.59241 85.1719 7.8191 84.4096 8.27301 83.8243C8.72796 83.2391 9.38876 82.9467 10.2549 82.9467C11.1226 82.9467 11.7797 83.2379 12.2274 83.8204C12.6761 84.4011 12.9002 85.1645 12.9002 86.1117ZM19.195 85.7877V86.537H16.767V89.4074H15.9681V83.0649H19.3581V83.8351H16.767V85.7877H19.195ZM26.6607 83.0649V83.8351H24.7523V89.4074H23.9336V83.8351H22.0237V83.0649H26.6607ZM35.644 83.0649H36.5091L34.7711 89.4074H34.0363L32.6903 84.1297L31.3369 89.4074H30.6172L28.8818 83.0649H29.7448L30.9721 88.096L32.2098 83.0649H33.1812L34.4183 88.096L35.644 83.0649ZM40.4739 86.9701H42.683L41.5662 84.0517L40.4739 86.9701ZM42.0295 83.0649L44.5117 89.4074H43.6664L43.0202 87.7194H40.156L39.5202 89.4074H38.6843L41.1295 83.0649H42.0295ZM50.3598 84.8111C50.3598 84.4492 50.2473 84.1959 50.0222 84.0517C49.7986 83.9069 49.475 83.8351 49.0508 83.8351H48.0231V85.7668H49.0508C49.9237 85.7668 50.3598 85.4484 50.3598 84.8111ZM51.3234 89.4074H50.4953C50.4281 89.0845 50.3739 88.7899 50.3327 88.5235C50.29 88.2583 50.253 88.0462 50.2223 87.8879C50.1743 87.651 50.1337 87.4632 50.0998 87.3258C50.0664 87.1873 50.019 87.0623 49.9586 86.9515C49.8986 86.8389 49.8434 86.7586 49.7918 86.7094C49.7397 86.6602 49.6547 86.619 49.5354 86.585C49.4182 86.5528 49.3072 86.5353 49.204 86.5324C49.1018 86.5285 48.945 86.5262 48.7329 86.5262H48.0231V89.4074H47.2242V83.0649H49.0586C49.7746 83.0649 50.3067 83.1978 50.6548 83.4647C51.0035 83.731 51.178 84.18 51.178 84.8111C51.178 85.3432 50.8143 85.7962 50.0863 86.1705C50.4495 86.2565 50.6981 86.4832 50.831 86.8525C50.8737 86.9775 50.9331 87.3343 51.0097 87.9235C51.0842 88.5116 51.189 89.0059 51.3234 89.4074ZM57.9533 88.6372V89.4074H54.2631V83.0649H57.8699V83.8351H55.062V85.7877H57.7886V86.537H55.062V88.6372H57.9533ZM70.3673 86.2316C70.3673 85.4614 70.1854 84.8694 69.8221 84.4554C69.4589 84.0421 68.956 83.8351 68.3135 83.8351H67.2858V88.6372H68.3135C68.9492 88.6372 69.4506 88.4262 69.8164 88.0055C70.1833 87.5848 70.3673 86.9933 70.3673 86.2316ZM71.1755 86.2316C71.1755 86.5528 71.1474 86.8604 71.0906 87.1533C71.0322 87.4451 70.9332 87.7313 70.7935 88.0117C70.6554 88.2911 70.4803 88.5326 70.2682 88.7356C70.0551 88.9408 69.7789 89.1031 69.4402 89.2241C69.0999 89.3463 68.7179 89.4074 68.2942 89.4074H66.4864V83.0649H68.2942C68.8278 83.0649 69.2869 83.1514 69.671 83.3256C70.0561 83.4998 70.3547 83.7395 70.5668 84.0455C70.7789 84.3514 70.9332 84.685 71.0301 85.0469C71.1271 85.4088 71.1755 85.8035 71.1755 86.2316ZM77.9341 88.6372V89.4074H74.2434V83.0649H77.8507V83.8351H75.0429V85.7877H77.7694V86.537H75.0429V88.6372H77.9341ZM84.6912 83.0649H85.6005L83.5275 89.4074H82.628L80.5544 83.0649H81.4721L83.0814 88.273L84.6912 83.0649ZM92.0121 88.6372V89.4074H88.3219V83.0649H91.9287V83.8351H89.1208V85.7877H91.8474V86.537H89.1208V88.6372H92.0121ZM98.5596 88.6372V89.4074H95.1696V83.0649H95.969V88.6372H98.5596ZM105.67 86.1117C105.67 85.3698 105.536 84.7845 105.267 84.3565C104.997 83.929 104.532 83.7146 103.871 83.7146C102.66 83.7146 102.054 84.5137 102.054 86.1117C102.054 86.4668 102.082 86.7943 102.139 87.0945C102.198 87.3931 102.293 87.6708 102.426 87.9275C102.559 88.1842 102.749 88.3867 102.994 88.5337C103.24 88.6824 103.532 88.7571 103.871 88.7571C104.211 88.7571 104.504 88.6824 104.75 88.5337C104.994 88.3867 105.18 88.1831 105.308 87.9235C105.435 87.6628 105.527 87.3841 105.586 87.0883C105.642 86.792 105.67 86.4668 105.67 86.1117ZM106.516 86.1117C106.516 86.7371 106.424 87.3038 106.239 87.8099C106.054 88.3165 105.758 88.7322 105.349 89.0579C104.94 89.383 104.448 89.5459 103.871 89.5459C103.296 89.5459 102.803 89.383 102.393 89.0579C101.985 88.7322 101.685 88.3165 101.494 87.8099C101.303 87.3038 101.209 86.7371 101.209 86.1117C101.209 85.1719 101.435 84.4096 101.889 83.8243C102.344 83.2391 103.005 82.9467 103.871 82.9467C104.739 82.9467 105.396 83.2379 105.843 83.8204C106.292 84.4011 106.516 85.1645 106.516 86.1117ZM112.701 84.8999C112.701 84.5108 112.584 84.236 112.351 84.0749C112.117 83.9148 111.752 83.8351 111.256 83.8351H110.383V85.9455H111.256C111.759 85.9455 112.125 85.8663 112.356 85.708C112.585 85.5508 112.701 85.281 112.701 84.8999ZM113.482 84.8999C113.482 85.281 113.42 85.5983 113.296 85.851C113.172 86.1049 112.994 86.2904 112.765 86.4086C112.534 86.5262 112.301 86.6071 112.065 86.6506C111.828 86.6925 111.549 86.7134 111.229 86.7134H110.383V89.4074H109.584V83.0649H111.229C111.477 83.0649 111.699 83.0756 111.896 83.0983C112.093 83.122 112.295 83.1735 112.501 83.2521C112.708 83.3307 112.879 83.4342 113.015 83.5637C113.152 83.6909 113.263 83.8685 113.35 84.0958C113.438 84.3214 113.482 84.5894 113.482 84.8999ZM122.522 83.0649V89.4074H121.721V83.9024L119.85 89.4074H119.214L117.368 83.9527V89.4074H116.568V83.0649H117.848L119.539 88.1842L121.24 83.0649H122.522ZM129.462 88.6372V89.4074H125.771V83.0649H129.378V83.8351H126.57V85.7877H129.297V86.537H126.57V88.6372H129.462ZM137.173 83.0649V89.4074H135.999L133.418 84.2179V89.4074H132.619V83.0649H133.763L136.354 88.273V83.0649H137.173ZM144.548 83.0649V83.8351H142.64V89.4074H141.822V83.8351H139.911V83.0649H144.548Z" fill="#322E35" fill-opacity="0.7"/>
<path d="M1.65884 73.5936V52.8959H8.90339C12.3533 52.8959 15.0221 53.7922 16.9115 55.5848C18.8003 57.3774 19.7444 59.9203 19.7444 63.2146C19.7444 66.5294 18.8003 69.0885 16.9115 70.8932C15.0221 72.6937 12.3533 73.5936 8.90339 73.5936H1.65884ZM4.14518 71.559H8.75181C11.5369 71.559 13.632 70.8606 15.0372 69.464C16.4379 68.0715 17.1386 65.988 17.1386 63.2146C17.1386 57.6919 14.3428 54.9306 8.75181 54.9306H4.14518V71.559ZM36.7054 65.7761V66.2125H25.5298C25.5512 68.0733 26.0009 69.4784 26.8802 70.4267C27.7557 71.3755 29.0319 71.8499 30.7107 71.8499C32.4863 71.8499 34.1203 71.2789 35.6142 70.1363L36.4343 71.8499C35.7695 72.4516 34.9154 72.9261 33.8725 73.2731C32.8335 73.6244 31.7686 73.8 30.6792 73.8C28.2979 73.8 26.4305 73.1258 25.0756 71.7774C23.7208 70.4291 23.0434 68.584 23.0434 66.2427C23.0434 64.7489 23.3466 63.4246 23.9523 62.27C24.558 61.1196 25.4078 60.2233 26.5015 59.5817C27.5916 58.9437 28.8325 58.6244 30.2251 58.6244C32.2441 58.6244 33.8304 59.2588 34.9827 60.5263C36.1312 61.798 36.7054 63.5478 36.7054 65.7761ZM30.2565 60.4532C28.9816 60.4532 27.9469 60.8226 27.1519 61.5614C26.3525 62.2966 25.8411 63.3317 25.6185 64.668H34.4971C34.3751 63.2955 33.9562 62.2501 33.241 61.5312C32.5221 60.813 31.5271 60.4532 30.2565 60.4532ZM45.9784 71.0387L51.1845 58.9998H53.6388L47.0634 73.5936H44.735L38.254 58.9998H40.829L45.9784 71.0387ZM61.2091 73.8C58.6467 73.8 56.6188 73.1699 55.1257 71.9102L55.9396 70.1665C56.7685 70.784 57.6076 71.2282 58.4573 71.4986C59.3033 71.7732 60.2518 71.9102 61.3035 71.9102C62.452 71.9102 63.325 71.7207 63.9225 71.3411C64.5194 70.962 64.8182 70.4146 64.8182 69.7C64.8182 69.1187 64.6163 68.6528 64.2125 68.3015C63.8087 67.9544 63.142 67.6834 62.2123 67.4897L59.6373 66.9084C58.363 66.638 57.3787 66.154 56.6843 65.455C55.9861 64.7567 55.637 63.9232 55.637 62.9544C55.637 61.6749 56.1729 60.6331 57.2459 59.8298C58.3146 59.0264 59.7279 58.6244 61.4865 58.6244C62.5551 58.6244 63.5646 58.7904 64.5157 59.1212C65.4623 59.4483 66.2592 59.9227 66.907 60.5444L66.0868 62.2579C64.6521 61.1154 63.1187 60.5444 61.4865 60.5444C60.3927 60.5444 59.5492 60.7424 58.9561 61.1377C58.3586 61.5373 58.0598 62.0944 58.0598 62.809C58.0598 63.4107 58.2473 63.8852 58.6215 64.2322C58.9957 64.5835 59.5977 64.8557 60.4267 65.0494L63.0011 65.6615C64.4144 65.9681 65.4642 66.4461 66.1497 67.0962C66.836 67.7462 67.1787 68.5942 67.1787 69.6396C67.1787 70.8993 66.6441 71.9066 65.5755 72.6611C64.5031 73.4204 63.0476 73.8 61.2091 73.8ZM81.7779 73.5936H79.2922V52.8959H81.7779V73.5936ZM94.4078 58.6244C98.0634 58.6244 99.8918 60.5522 99.8918 64.4078V73.5936H97.4369V64.5225C97.4369 63.1663 97.1552 62.1734 96.591 61.5433C96.023 60.9138 95.1336 60.5987 93.9222 60.5987C92.5083 60.5987 91.3786 61.0164 90.5333 61.8523C89.6835 62.684 89.2583 63.8079 89.2583 65.2251V73.5936H86.8041V63.0691C86.8041 61.5596 86.7236 60.1949 86.5638 58.9757H88.8986L89.1388 61.5922C89.6011 60.6391 90.2974 59.9064 91.2277 59.394C92.1573 58.8809 93.2171 58.6244 94.4078 58.6244ZM115.491 52.2H117.945V73.5936H115.523V70.9475C115.077 71.8601 114.405 72.5627 113.509 73.0552C112.609 73.5513 111.564 73.8 110.373 73.8C109.04 73.8 107.863 73.4789 106.846 72.8367C105.823 72.1993 105.031 71.303 104.466 70.1484C103.898 68.998 103.615 67.6653 103.615 66.1516C103.615 64.642 103.892 63.3196 104.448 62.1855C105.003 61.0508 105.796 60.175 106.827 59.5569C107.857 58.9353 109.04 58.6244 110.373 58.6244C111.564 58.6244 112.603 58.8707 113.49 59.3632C114.378 59.8599 115.045 60.5546 115.491 61.4467V52.2ZM110.859 71.8499C112.352 71.8499 113.503 71.3616 114.311 70.3844C115.119 69.4036 115.523 68.013 115.523 66.2125C115.523 64.4278 115.119 63.0474 114.311 62.0702C113.503 61.0894 112.352 60.5987 110.859 60.5987C109.361 60.5987 108.194 61.0834 107.357 62.0521C106.519 63.0208 106.101 64.3873 106.101 66.1516C106.101 67.9562 106.519 69.3571 107.357 70.3542C108.194 71.3513 109.361 71.8499 110.859 71.8499ZM125.152 73.5936H122.697V58.9757H125.152V73.5936ZM122.458 55.4575V52.7813H125.455V55.4575H122.458ZM142.66 65.7761V66.2125H131.484C131.505 68.0733 131.955 69.4784 132.835 70.4267C133.709 71.3755 134.986 71.8499 136.665 71.8499C138.44 71.8499 140.075 71.2789 141.568 70.1363L142.388 71.8499C141.724 72.4516 140.87 72.9261 139.826 73.2731C138.787 73.6244 137.723 73.8 136.633 73.8C134.252 73.8 132.384 73.1258 131.029 71.7774C129.675 70.4291 128.998 68.584 128.998 66.2427C128.998 64.7489 129.3 63.4246 129.906 62.27C130.512 61.1196 131.362 60.2233 132.456 59.5817C133.545 58.9437 134.786 58.6244 136.179 58.6244C138.198 58.6244 139.784 59.2588 140.937 60.5263C142.086 61.798 142.66 63.5478 142.66 65.7761ZM136.21 60.4532C134.936 60.4532 133.901 60.8226 133.106 61.5614C132.306 62.2966 131.795 63.3317 131.572 64.668H140.451C140.329 63.2955 139.91 62.2501 139.195 61.5312C138.476 60.813 137.481 60.4532 136.21 60.4532Z" fill="#322E35"/>
<path d="M57.1244 31.5387L55.2218 34.1049L61.6007 41.0269L63.968 38.9264C65.1344 39.6262 66.3637 40.1761 67.6387 40.5688L67.965 43.9253H73.5921V38.7679H78.5602C79.0445 40.2409 80.3295 41.3043 81.8513 41.3043C83.7846 41.3043 85.3576 39.5975 85.3576 37.4997C85.3576 35.4018 83.7846 33.695 81.8513 33.695C80.3295 33.695 79.0445 34.7585 78.5602 36.2314H73.5921V33.695H72.4233C66.623 33.695 61.9044 28.5749 61.9044 22.281C61.9044 15.9871 66.623 10.867 72.4233 10.867H73.5921V8.33054H78.5602C79.0445 9.80353 80.3295 10.867 81.8513 10.867C83.7846 10.867 85.3576 9.16017 85.3576 7.06232C85.3576 4.96447 83.7846 3.25765 81.8513 3.25765C80.3295 3.25765 79.0445 4.32111 78.5602 5.7941H73.5921V0.636658H67.859L67.5553 4.02057C66.2806 4.4192 65.0534 4.97537 63.8916 5.68015L61.5267 3.61566L55.1454 10.5374L57.0833 13.1062C56.4387 14.3718 55.9319 15.7057 55.57 17.0892L52.4764 17.4432V27.2337L55.595 27.5633C55.9623 28.9468 56.4749 30.2781 57.1244 31.5387Z" fill="#0980CD"/>
<path d="M88.8639 18.4763C87.3421 18.4763 86.057 19.5398 85.5728 21.0128H70.0858V23.5492H85.5728C86.057 25.0222 87.3421 26.0857 88.8639 26.0857C90.7972 26.0857 92.3702 24.3788 92.3702 22.281C92.3702 20.1831 90.7972 18.4763 88.8639 18.4763Z" fill="#0980CD"/>
<path d="M89.1329 8.34143C87.0785 8.17432 85.3576 9.94058 85.3576 12.1352C85.3576 12.2931 85.3832 12.4433 85.4005 12.5963L81.5749 14.6716H71.456C67.4719 14.6716 64.242 18.1764 64.242 22.4996C64.242 26.5814 67.2914 29.8903 71.053 29.8903H81.5749L85.4005 31.9657C85.3832 32.1186 85.3576 32.2689 85.3576 32.4268C85.3576 34.6214 87.0785 36.3876 89.1329 36.2205C90.8474 36.0808 92.2314 34.5791 92.3601 32.7187C92.5141 30.4894 90.8864 28.6221 88.8639 28.6221C87.921 28.6221 87.0675 29.0326 86.4369 29.6918L82.1277 27.3539H71.2545C68.6726 27.3539 66.5795 25.0826 66.5795 22.281C66.5795 19.4793 68.6726 17.2081 71.2545 17.2081H82.1277L86.4369 14.8701C87.0675 15.5293 87.921 15.9399 88.8639 15.9399C90.8864 15.9399 92.5141 14.0725 92.3601 11.8432C92.2314 9.98286 90.8474 8.48114 89.1329 8.34143Z" fill="#0980CD"/>
</g>
<defs>
<clipPath id="clip0_1_192">
<rect width="145" height="90" fill="white"/>
</clipPath>
</defs>
</svg>
