<?xml version="1.0" standalone="yes"?>
<svg xmlns="http://www.w3.org/2000/svg" width="1217" height="777">
<path style="fill:#000000; stroke:none;" d="M0 0L0 777L1217 777L1217 0L0 0z"/>
<path style="fill:#0980cd; stroke:none;" d="M465 261C470.656 261.243 476.381 262.012 482 262.715C484.111 262.979 486.733 262.78 488.57 264.028C491.995 266.353 492.706 273.325 494.053 277C495.964 282.21 501.007 289.375 500.663 295C500.259 301.608 491.161 310.191 487 315C496.605 329.047 510.138 341.794 521.986 354C526.222 358.364 530.398 365.582 536 368.248C538.825 369.593 540.887 367.771 543 366.026C546.627 363.032 551.728 356.17 556.576 355.495C560.371 354.967 565.711 359.15 569 360.742C573.468 362.903 580.942 364.115 584.4 367.702C586.171 369.538 586.409 372.594 586.714 375C587.467 380.946 587.996 387.007 588 393L633 393L633 352L659 352C662.562 352 667.587 351.14 670.787 353.028C673.969 354.905 675.185 359.201 677.39 361.999C682.547 368.539 690.488 373.082 699 372.871C729.629 372.113 736.125 324.969 708 314.559C698.209 310.935 686.517 313.59 679.326 321.184C676.392 324.282 674.756 330.639 670.776 332.397C667.471 333.856 662.534 333 659 333L633 333L633 313C611.374 313 591.139 308.957 574 294.674C533.678 261.073 529.206 201.31 561.805 161C568.601 152.596 577.377 145.238 587 140.258C602.02 132.487 616.381 131 633 131L633 110L659 110C662.564 110 667.585 109.141 670.787 111.028C674.248 113.066 675.812 117.986 678.329 120.996C683.457 127.13 690.908 130.847 699 130.82C729.286 130.721 736.001 83.8616 709 72.9305C698.963 68.8673 686.767 71.2027 679.326 79.1736C676.426 82.2798 674.741 88.6459 670.776 90.3966C667.471 91.856 662.534 91 659 91L633 91L633 50L600 50C596.859 50 590.406 48.7916 588.179 51.6034C586.628 53.5618 587.082 56.6797 586.911 59C586.45 65.2566 587.319 74.6817 580.945 77.9453C575.143 80.9157 568.815 82.769 563 85.7801C560.535 87.0565 557.901 88.9933 555 88.0679C550.052 86.4896 546.013 80.8957 542 77.7778C540.026 76.2443 537.842 74.3677 535.286 75.7515C530.184 78.5127 525.355 85.649 521.576 90C514.151 98.5467 505.999 106.454 498.576 115C495.541 118.494 488.592 123.202 487.907 128C487.529 130.64 489.697 133.034 491.131 135C494.801 140.031 502.238 146.27 499.683 153C497.263 159.373 494.439 165.481 492.344 172C491.492 174.652 491.003 178.259 488.57 179.987C484.584 182.817 476.716 182.294 472.001 182.835C469.7 183.099 466.797 182.892 465.603 185.318C462.977 190.656 465 201.111 465 207L465 261z"/>
<path style="fill:#2790d4; stroke:none;" d="M633 110C636.959 111.661 641.74 111 646 111L672 111C668.041 109.339 663.26 110 659 110L633 110z"/>
<path style="fill:#0980cd; stroke:none;" d="M750 111.468C739.692 113.396 731.432 121.011 728.44 131C727.196 135.152 728.058 141.195 725.397 144.671C722.949 147.868 718.465 149.466 715 151.258C709.017 154.354 703.258 158.411 697 160.926C689.129 164.089 677.393 162 669 162C634.059 162 589.386 153.462 568.312 189C564.472 195.477 561.653 202.589 560.261 210C558.511 219.312 558.547 228.711 560.45 238C561.659 243.906 563.92 249.855 567.069 255C573.66 265.769 582.956 274.588 595 278.91C605.067 282.522 615.493 282 626 282L667 282C677.246 282 690.593 279.698 700 284.274C706.085 287.234 712.115 290.656 718 294C720.386 295.356 723.553 296.542 725.397 298.637C728.76 302.46 727.499 311.093 729.796 316C736.815 330.993 756.061 337.415 769.996 327.362C788.884 313.735 784.763 277.671 760 273.329C754.783 272.414 748.874 272.791 744 274.88C740.61 276.334 736.9 280.074 733 279.272C721.29 276.866 712.142 264.402 700 263.108C678.839 260.853 656.29 263 635 263C626.327 263 617.559 263.53 609 261.905C591.633 258.608 578.313 242.478 577.089 225C575.668 204.693 589.64 185.129 610 181.465C617.081 180.19 624.825 181 632 181L677 181C684.467 181 692.613 181.916 700 180.787C712.055 178.944 721.156 166.477 733 164.377C736.89 163.688 740.585 167.505 744 168.906C751.052 171.799 759.137 171.774 766 168.341C793.191 154.74 782.299 105.426 750 111.468M729 212L606 212L606 231L685 231C697.522 231 711.628 229.165 723.985 231.148C729.687 232.063 731.251 238.935 734.67 242.826C739.556 248.388 747.522 252.08 755 251.87C772.572 251.379 784.128 233.489 781.699 217C780.387 208.09 775.152 199.176 767 194.996C752.419 187.52 732.06 195.047 729 212z"/>
<path style="fill:#2790d3; stroke:none;" d="M605 212L605 231C607.02 226.187 607.02 216.813 605 212z"/>
<path style="fill:#2790d4; stroke:none;" d="M606 231C609.959 232.661 614.74 232 619 232L643 232L728 232C724.042 230.339 719.26 231 715 231L691 231L606 231z"/>
<path style="fill:#2790d3; stroke:none;" d="M612 262C619.399 265.105 630.993 263 639 263L700 263C692.601 259.895 681.007 262 673 262L612 262z"/>
<path style="fill:#2790d4; stroke:none;" d="M633 352C636.959 353.661 641.74 353 646 353L672 353C668.041 351.339 663.26 352 659 352L633 352M589 393C593.469 394.875 599.191 394 604 394L633 394C628.531 392.125 622.809 393 618 393L589 393z"/>
<path style="fill:#4b474e; stroke:none;" d="M966 460L966 507C966 515.518 966.982 524.675 965 533C968.899 529.593 967 519.901 967 515L967 478C967 472.381 968.189 465.216 966 460z"/>
<path style="fill:#322e35; stroke:none;" d="M967 460L967 533C963.917 530.013 961.96 526.146 958.907 523.093C952.829 517.017 944.346 513.552 936 512.084C925.137 510.173 913.16 510.7 903 515.312C864.398 532.839 860.981 596.553 894.004 621.485C915.09 637.405 953.754 634.737 966 609C967.862 615.301 967 622.458 967 629L985 629L985 460L967 460z"/>
<path style="fill:#646167; stroke:none;" d="M61 465C66.7073 467.395 74.846 466 81 466L122 466C116.293 463.605 108.154 465 102 465L61 465M678 629C679.981 624.28 679 618.08 679 613L679 580L679 466L698 466C694.383 464.482 681.786 463.121 679.028 466.603C677.228 468.876 678 473.307 678 476L678 501L678 629z"/>
<path style="fill:#322e35; stroke:none;" d="M1022 465L1022 485L1045 485L1045 465L1022 465M61 466L61 629L110 629C130.278 629 149.698 628.741 168 618.688C194.971 603.874 204 576.042 204 547C204 519.959 195.854 494.034 172 478.698C153.222 466.626 131.537 466 110 466L61 466z"/>
<path style="fill:#646167; stroke:none;" d="M134.667 466.333C134.222 466.778 135.278 466.722 135.333 466.667C135.778 466.222 134.722 466.278 134.667 466.333z"/>
<path style="fill:#322e35; stroke:none;" d="M679 466L679 629L698 629L698 466L679 466z"/>
<path style="fill:#716e74; stroke:none;" d="M141.667 467.333C141.222 467.778 142.278 467.722 142.333 467.667C142.778 467.222 141.722 467.278 141.667 467.333z"/>
<path style="fill:#646167; stroke:none;" d="M146 468L147 469L146 468M150 469L151 470L150 469M159 472L160 473L159 472z"/>
<path style="fill:#000000; stroke:none;" d="M81.6034 482.028C78.4004 484.565 80 493.368 80 497L80 541L80 593C80 597.705 77.9902 608.561 81.0278 612.397C82.4055 614.136 85.0191 613.958 87.0008 613.995C91.9968 614.09 97.003 614 102 614C123.488 614 146.163 614.537 164 600.482C185.995 583.152 187.819 547.107 181.115 522C178.729 513.066 174.534 504.636 167.96 498.039C154.279 484.313 133.611 481.001 115 481L91 481C88.3066 481 83.8755 480.228 81.6034 482.028z"/>
<path style="fill:#646268; stroke:none;" d="M125.667 481.333C125.222 481.778 126.278 481.722 126.333 481.667C126.778 481.222 125.722 481.278 125.667 481.333z"/>
<path style="fill:#57555b; stroke:none;" d="M134.667 482.333C134.222 482.778 135.278 482.722 135.333 482.667C135.778 482.222 134.722 482.278 134.667 482.333z"/>
<path style="fill:#4b474e; stroke:none;" d="M139.667 483.333C139.222 483.778 140.278 483.722 140.333 483.667C140.778 483.222 139.722 483.278 139.667 483.333z"/>
<path style="fill:#716e74; stroke:none;" d="M143 484L144 485L143 484z"/>
<path style="fill:#646167; stroke:none;" d="M162 493L163 494L162 493M190 496L191 497L190 496M192 499L193 500L192 499M174 506L175 507L174 506M198 511L199 512L198 511z"/>
<path style="fill:#4b474e; stroke:none;" d="M278 511C279.248 511.685 279.548 511.749 281 512C279.752 511.315 279.452 511.251 278 511z"/>
<path style="fill:#322e35; stroke:none;" d="M337 617C335.607 612.129 333.505 607.401 331 603C323.202 606.688 316.436 611.672 308 614.09C285.952 620.411 260.829 613.437 253.09 590C251.119 584.033 250.269 577.26 250 571L339 571C339 555.74 337.869 540.346 327.671 528C306.482 502.346 261.205 506.28 242.44 533C223.534 559.919 227.268 608.169 259 624.191C284.388 637.009 313.891 631.248 337 617z"/>
<path style="fill:#646167; stroke:none;" d="M298.667 511.333C298.222 511.778 299.278 511.722 299.333 511.667C299.778 511.222 298.722 511.278 298.667 511.333z"/>
<path style="fill:#4b474e; stroke:none;" d="M523 511C524.769 511.779 526.036 511.912 528 512C526.231 511.221 524.964 511.088 523 511z"/>
<path style="fill:#322e35; stroke:none;" d="M492 603C490.867 606.932 486.325 612.823 488.133 616.896C490.793 622.89 502.239 626.247 508 627.958C527.683 633.801 558.14 634.26 573.699 618.699C577.734 614.664 580.239 609.639 580.946 604C581.462 599.887 581.839 596.109 581.064 592C576.172 566.058 543.347 567.883 524 560.91C516.751 558.297 509.16 552.442 509.188 544C509.211 536.668 515.538 530.578 522 528.13C533.372 523.82 547.106 525.767 558 530.429C562.545 532.374 571.464 540.858 575.319 534.848C576.749 532.62 578.827 528.827 578.184 526.093C577.592 523.579 574.994 522.018 572.995 520.699C567.559 517.111 561.326 514.724 555 513.236C535.497 508.649 507.589 509.492 495.108 528.015C491.97 532.672 491.027 537.488 491.001 543C490.979 547.424 490.818 551.813 492.479 556C499.466 573.608 520.751 576.498 537 579.801C545.829 581.595 556.024 583.915 561.272 592.004C568.234 602.732 556.982 613.248 547 615.572C533.753 618.656 519.414 616.46 507 611.127C501.737 608.867 497.153 605.437 492 603z"/>
<path style="fill:#716e74; stroke:none;" d="M544.667 511.333C544.222 511.778 545.278 511.722 545.333 511.667C545.778 511.222 544.722 511.278 544.667 511.333z"/>
<path style="fill:#4b474e; stroke:none;" d="M791.667 511.333C791.222 511.778 792.278 511.722 792.333 511.667C792.778 511.222 791.722 511.278 791.667 511.333z"/>
<path style="fill:#322e35; stroke:none;" d="M757 534C754.938 527.48 755.24 520.678 754 514L736 514C739.349 527.908 738 542.797 738 557L738 629L757 629L757 576C757 564.878 756.114 554.019 761.88 544C772.521 525.51 805.869 517.289 818.66 538C824.336 547.19 823 558.704 823 569L823 629L842 629L842 569C842 555.093 842.537 540.463 835.319 528C819.562 500.791 769.631 507.454 757 534z"/>
<path style="fill:#646167; stroke:none;" d="M805.667 511.333C805.223 511.777 806.278 511.722 806.333 511.667C806.778 511.222 805.722 511.278 805.667 511.333z"/>
<path style="fill:#4b474e; stroke:none;" d="M916 511C917.248 511.685 917.548 511.749 919 512C917.752 511.315 917.452 511.251 916 511z"/>
<path style="fill:#716e74; stroke:none;" d="M932.667 511.333C932.223 511.777 933.278 511.722 933.333 511.667C933.778 511.222 932.722 511.278 932.667 511.333z"/>
<path style="fill:#57545a; stroke:none;" d="M1122 511C1123.25 511.685 1123.55 511.749 1125 512C1123.75 511.315 1123.45 511.251 1122 511z"/>
<path style="fill:#322e35; stroke:none;" d="M1174 603C1167.06 605.879 1161.28 610.658 1154 612.971C1131.47 620.135 1102.62 615.057 1095.49 589C1093.88 583.111 1093.02 577.092 1093 571L1182 571C1182 560.306 1181.16 548.856 1176.69 539C1162.79 508.384 1119.27 501.752 1094 523.213C1075.1 539.261 1070.2 566.658 1075.9 590C1083.22 619.982 1110.25 632.219 1139 630.961C1149.41 630.505 1159.69 627.899 1169 623.241C1172.16 621.662 1177.2 619.696 1178.21 615.907C1179.29 611.839 1175.5 606.615 1174 603z"/>
<path style="fill:#646167; stroke:none;" d="M1138 511C1139.51 511.683 1140.31 511.826 1142 512C1140.49 511.317 1139.69 511.174 1138 511M273 512L274 513L273 512z"/>
<path style="fill:#716e74; stroke:none;" d="M519 512L520 513L519 512z"/>
<path style="fill:#646167; stroke:none;" d="M551 512L552 513L551 512M812 512L813 513L812 512M938 512L939 513L938 512z"/>
<path style="fill:#716e74; stroke:none;" d="M1145 512L1146 513L1145 512M307 513L308 514L307 513z"/>
<path style="fill:#706e74; stroke:none;" d="M178 514L179 515L178 514z"/>
<path style="fill:#646167; stroke:none;" d="M199 514L200 515L199 514z"/>
<path style="fill:#716e74; stroke:none;" d="M309 514L310 515L309 514z"/>
<path style="fill:#646167; stroke:none;" d="M352 514L353 515L352 514z"/>
<path style="fill:#322e35; stroke:none;" d="M353 514C355.108 525.824 362.762 538.058 367.694 549C376.686 568.945 385.314 589.055 394.306 609C396.485 613.835 399.397 626.021 404.394 628.397C407.082 629.675 411.107 629.006 414 629C416.166 628.996 418.747 629.287 420.786 628.397C424 626.993 424.973 622.912 426.309 620L435.309 600C448.369 571.477 462.093 543.024 474 514C469.025 514 459.692 512.202 455.418 515.028C452.947 516.662 451.96 520.417 450.85 523L443.576 540C433.696 562.775 422 585.497 414 609C408.953 601.85 406.175 593.01 402.719 585L383.85 541L376.15 523C375.04 520.417 374.053 516.662 371.582 515.028C367.308 512.202 357.975 514 353 514z"/>
<path style="fill:#646167; stroke:none;" d="M372 514L373 515L372 514z"/>
<path style="fill:#716e74; stroke:none;" d="M512.667 514.333C512.222 514.778 513.278 514.722 513.333 514.667C513.778 514.222 512.722 514.278 512.667 514.333z"/>
<path style="fill:#4b484e; stroke:none;" d="M754 514L754 517C754.696 515.446 754.696 515.554 754 514z"/>
<path style="fill:#322e35; stroke:none;" d="M1024 514L1024 629L1043 629L1043 514L1024 514z"/>
<path style="fill:#646167; stroke:none;" d="M1151 514L1152 515L1151 514M510.667 515.333C510.222 515.778 511.278 515.722 511.333 515.667C511.778 515.222 510.722 515.278 510.667 515.333M776 515L777 516L776 515z"/>
<path style="fill:#716e74; stroke:none;" d="M902 515L903 516L902 515z"/>
<path style="fill:#646167; stroke:none;" d="M1107 515L1108 516L1107 515M262 516L263 517L262 516M774 516L775 517L774 516z"/>
<path style="fill:#716e74; stroke:none;" d="M900 516L901 517L900 516z"/>
<path style="fill:#646167; stroke:none;" d="M200 517L201 518L200 517M260 517L261 518L260 517z"/>
<path style="fill:#716e74; stroke:none;" d="M772 517L773 518L772 517z"/>
<path style="fill:#646167; stroke:none;" d="M826 518L827 519L826 518M1101 518L1102 519L1101 518M318 519L319 520L318 519M374 519L375 520L374 519z"/>
<path style="fill:#706e74; stroke:none;" d="M452 519L453 520L452 519z"/>
<path style="fill:#716e75; stroke:none;" d="M471 519L472 520L471 519z"/>
<path style="fill:#646167; stroke:none;" d="M504 519L505 520L504 519M769 519L770 520L769 519z"/>
<path style="fill:#716e74; stroke:none;" d="M895 519L896 520L895 519M1099 519L1100 520L1099 519M255 520L256 521L255 520z"/>
<path style="fill:#706e74; stroke:none;" d="M355 521L356 522L355 521z"/>
<path style="fill:#646167; stroke:none;" d="M375 521L376 522L375 521M500 522L501 523L500 522z"/>
<path style="fill:#4b474e; stroke:none;" d="M737.333 522.667C737.278 522.722 737.222 523.778 737.667 523.333C737.722 523.278 737.778 522.222 737.333 522.667z"/>
<path style="fill:#646167; stroke:none;" d="M891 522L892 523L891 522z"/>
<path style="fill:#706e74; stroke:none;" d="M181 523L182 524L181 523z"/>
<path style="fill:#716e74; stroke:none;" d="M251 523L252 524L251 523z"/>
<path style="fill:#646167; stroke:none;" d="M356 523L357 524L356 523z"/>
<path style="fill:#706e74; stroke:none;" d="M737.333 524.667C737.278 524.722 737.222 525.778 737.667 525.333C737.722 525.278 737.778 524.222 737.333 524.667z"/>
<path style="fill:#716e74; stroke:none;" d="M282 525L283 526L282 525z"/>
<path style="fill:#000000; stroke:none;" d="M251 559L322 559C321.922 549.567 318.915 539.857 311.907 533.185C300.853 522.663 280.483 522.758 268 530.468C257.39 537.022 253.951 547.624 251 559z"/>
<path style="fill:#646268; stroke:none;" d="M293.667 525.333C293.222 525.778 294.278 525.722 294.333 525.667C294.778 525.222 293.722 525.278 293.667 525.333z"/>
<path style="fill:#4b484e; stroke:none;" d="M755 525L755 528C755.696 526.446 755.696 526.554 755 525z"/>
<path style="fill:#000000; stroke:none;" d="M1094 559L1165 559C1164.49 552.527 1163.41 545.578 1159.87 540C1149.72 524.017 1125.56 519.925 1110 530.8C1100.49 537.447 1095.52 547.747 1094 559z"/>
<path style="fill:#706e74; stroke:none;" d="M1138 525L1139 526L1138 525z"/>
<path style="fill:#646268; stroke:none;" d="M299 526L300 527L299 526z"/>
<path style="fill:#646167; stroke:none;" d="M377 526L378 527L377 526M449 526L450 527L449 526z"/>
<path style="fill:#57555b; stroke:none;" d="M544.667 526.333C544.222 526.778 545.278 526.722 545.333 526.667C545.778 526.222 544.722 526.278 544.667 526.333M788 526C789.248 526.685 789.548 526.749 791 527C789.752 526.315 789.452 526.251 788 526z"/>
<path style="fill:#646268; stroke:none;" d="M799.667 526.333C799.222 526.778 800.278 526.722 800.333 526.667C800.778 526.222 799.722 526.278 799.667 526.333M924 526L925 527L924 526z"/>
<path style="fill:#000000; stroke:none;" d="M925 526.428C915.15 527.823 906.838 531.146 900.329 539.001C886.307 555.922 887.541 591.111 903.3 606.56C912.6 615.677 926.565 617.412 939 615.571C956.53 612.975 964.918 595.186 966.025 579C967.278 560.665 966.072 540.802 948 530.533C944.623 528.614 940.79 527.751 937 527.084C932.941 526.37 929.111 525.846 925 526.428z"/>
<path style="fill:#646268; stroke:none;" d="M933.667 526.333C933.222 526.778 934.278 526.722 934.333 526.667C934.778 526.222 933.722 526.278 933.667 526.333z"/>
<path style="fill:#706e74; stroke:none;" d="M1142 526L1143 527L1142 526z"/>
<path style="fill:#646268; stroke:none;" d="M302 527L303 528L302 527z"/>
<path style="fill:#716e74; stroke:none;" d="M495 527L496 528L495 527M523 527L524 528L523 527z"/>
<path style="fill:#646268; stroke:none;" d="M783 527L784 528L783 527M918 527L919 528L918 527z"/>
<path style="fill:#4b474e; stroke:none;" d="M939.667 527.333C939.222 527.778 940.278 527.722 940.333 527.667C940.778 527.222 939.722 527.278 939.667 527.333z"/>
<path style="fill:#646268; stroke:none;" d="M1116 527L1117 528L1116 527M271 528L272 529L271 528z"/>
<path style="fill:#646167; stroke:none;" d="M378 528L379 529L378 528z"/>
<path style="fill:#646268; stroke:none;" d="M520 528L521 529L520 528M553 528L554 529L553 528z"/>
<path style="fill:#716e74; stroke:none;" d="M808 528L809 529L808 528z"/>
<path style="fill:#646167; stroke:none;" d="M835 528L836 529L835 528z"/>
<path style="fill:#646268; stroke:none;" d="M777 529L778 530L777 529M912 529L913 530L912 529z"/>
<path style="fill:#706e74; stroke:none;" d="M359 530L360 531L359 530z"/>
<path style="fill:#646268; stroke:none;" d="M466 530L467 531L466 530z"/>
<path style="fill:#646167; stroke:none;" d="M493 530L494 531L493 530z"/>
<path style="fill:#646268; stroke:none;" d="M775 530L776 531L775 530M910 530L911 531L910 530z"/>
<path style="fill:#4b484e; stroke:none;" d="M203.333 531.667C203.278 531.722 203.222 532.778 203.667 532.333C203.722 532.278 203.778 531.222 203.333 531.667z"/>
<path style="fill:#646167; stroke:none;" d="M1172 531L1173 532L1172 531M360 532L361 533L360 532z"/>
<path style="fill:#646268; stroke:none;" d="M576 532L577 533L576 532z"/>
<path style="fill:#646167; stroke:none;" d="M837 532L838 533L837 532z"/>
<path style="fill:#706e74; stroke:none;" d="M183.333 533.667C183.278 533.722 183.222 534.778 183.667 534.333C183.722 534.278 183.778 533.222 183.333 533.667z"/>
<path style="fill:#646167; stroke:none;" d="M380 533L381 534L380 533M446 533L447 534L446 533z"/>
<path style="fill:#706e74; stroke:none;" d="M564 533L565 534L564 533z"/>
<path style="fill:#646268; stroke:none;" d="M575 534L576 535L575 534z"/>
<path style="fill:#646167; stroke:none;" d="M816 534L817 535L816 534M381 535L382 536L381 535z"/>
<path style="fill:#716e74; stroke:none;" d="M491 535L492 536L491 535M880 535L881 536L880 535z"/>
<path style="fill:#646167; stroke:none;" d="M1175 536L1176 537L1175 536z"/>
<path style="fill:#646268; stroke:none;" d="M510 537L511 538L510 537z"/>
<path style="fill:#4b484e; stroke:none;" d="M572.667 538.333C572.222 538.778 573.278 538.722 573.333 538.667C573.778 538.222 572.722 538.278 572.667 538.333z"/>
<path style="fill:#646167; stroke:none;" d="M819 538L820 539L819 538M363 539L364 540L363 539z"/>
<path style="fill:#716e74; stroke:none;" d="M764 539L765 540L764 539z"/>
<path style="fill:#646167; stroke:none;" d="M383 540L384 541L383 540M443 540L444 541L443 540M490.333 540.667C490.278 540.722 490.222 541.778 490.667 541.333C490.722 541.278 490.778 540.222 490.333 540.667z"/>
<path style="fill:#646268; stroke:none;" d="M509 540L510 541L509 540z"/>
<path style="fill:#646167; stroke:none;" d="M364 541L365 542L364 541M384 542L385 543L384 542z"/>
<path style="fill:#4b474e; stroke:none;" d="M490 542L490 548C490.951 545.715 490.951 544.285 490 542z"/>
<path style="fill:#716e74; stroke:none;" d="M960 542L961 543L960 542z"/>
<path style="fill:#646167; stroke:none;" d="M876 543L877 544L876 543z"/>
<path style="fill:#646268; stroke:none;" d="M204 544L204 551C205.059 548.466 205.059 546.534 204 544z"/>
<path style="fill:#716e75; stroke:none;" d="M336 545L337 546L336 545z"/>
<path style="fill:#646167; stroke:none;" d="M1162 545L1163 546L1162 545M386 547L387 548L386 547z"/>
<path style="fill:#716e75; stroke:none;" d="M509 547L510 548L509 547z"/>
<path style="fill:#646167; stroke:none;" d="M1077 547L1078 548L1077 547M367 548L368 549L367 548z"/>
<path style="fill:#716e74; stroke:none;" d="M759 548L760 549L759 548z"/>
<path style="fill:#646167; stroke:none;" d="M822 548L823 549L822 548z"/>
<path style="fill:#58555b; stroke:none;" d="M841.333 548.667C841.278 548.722 841.222 549.778 841.667 549.333C841.722 549.278 841.778 548.222 841.333 548.667z"/>
<path style="fill:#646268; stroke:none;" d="M1096 548L1097 549L1096 548z"/>
<path style="fill:#706e74; stroke:none;" d="M1163 548L1164 549L1163 548z"/>
<path style="fill:#646268; stroke:none;" d="M253 549L254 550L253 549z"/>
<path style="fill:#646167; stroke:none;" d="M387 549L388 550L387 549M874 549L875 550L874 549z"/>
<path style="fill:#646168; stroke:none;" d="M963 549L964 550L963 549z"/>
<path style="fill:#646167; stroke:none;" d="M368 550L369 551L368 550z"/>
<path style="fill:#646268; stroke:none;" d="M457 550L458 551L457 550z"/>
<path style="fill:#4b474e; stroke:none;" d="M964.333 550.667C964.278 550.722 964.222 551.778 964.667 551.333C964.722 551.278 964.778 550.222 964.333 550.667z"/>
<path style="fill:#706e74; stroke:none;" d="M1076 550L1077 551L1076 550z"/>
<path style="fill:#646268; stroke:none;" d="M758 551L759 552L758 551M1095 551L1096 552L1095 551z"/>
<path style="fill:#716e75; stroke:none;" d="M1180 551L1181 552L1180 551z"/>
<path style="fill:#706e74; stroke:none;" d="M233 552L234 553L233 552M873 553L874 554L873 553z"/>
<path style="fill:#646167; stroke:none;" d="M389 554L390 555L389 554M1164 554L1165 555L1164 554z"/>
<path style="fill:#58555b; stroke:none;" d="M757 555L757 558C757.696 556.446 757.696 556.554 757 555z"/>
<path style="fill:#716e75; stroke:none;" d="M1094 555L1095 556L1094 555M251.333 556.667C251.278 556.722 251.222 557.778 251.667 557.333C251.722 557.278 251.778 556.222 251.333 556.667z"/>
<path style="fill:#646167; stroke:none;" d="M390 556L391 557L390 556z"/>
<path style="fill:#706e74; stroke:none;" d="M436 556L437 557L436 556z"/>
<path style="fill:#646167; stroke:none;" d="M371 557L372 558L371 557M872 558L872 561C872.696 559.446 872.696 559.554 872 558z"/>
<path style="fill:#4b484e; stroke:none;" d="M1181 558L1181 561C1181.7 559.446 1181.7 559.554 1181 558z"/>
<path style="fill:#646167; stroke:none;" d="M372 559L373 560L372 559M1074.33 559.667C1074.28 559.722 1074.22 560.778 1074.67 560.333C1074.72 560.278 1074.78 559.222 1074.33 559.667z"/>
<path style="fill:#57545a; stroke:none;" d="M183.333 560.667C183.278 560.722 183.222 561.778 183.667 561.333C183.722 561.278 183.778 560.222 183.333 560.667z"/>
<path style="fill:#716e74; stroke:none;" d="M522 560L523 561L522 560z"/>
<path style="fill:#646167; stroke:none;" d="M392 561L393 562L392 561M525 561L526 562L525 561z"/>
<path style="fill:#4b474e; stroke:none;" d="M966 561L966 564C966.696 562.446 966.696 562.554 966 561z"/>
<path style="fill:#716e75; stroke:none;" d="M203.333 562.667C203.278 562.722 203.222 563.778 203.667 563.333C203.722 563.278 203.778 562.222 203.333 562.667z"/>
<path style="fill:#646167; stroke:none;" d="M529 562L530 563L529 562M231.333 563.667C231.278 563.722 231.222 564.778 231.667 564.333C231.722 564.278 231.778 563.222 231.333 563.667z"/>
<path style="fill:#716e74; stroke:none;" d="M393 563L394 564L393 563z"/>
<path style="fill:#646167; stroke:none;" d="M433 563L434 564L433 563z"/>
<path style="fill:#646268; stroke:none;" d="M891.333 563.667C891.278 563.722 891.222 564.778 891.667 564.333C891.722 564.278 891.778 563.222 891.333 563.667z"/>
<path style="fill:#716e74; stroke:none;" d="M538 564L539 565L538 564M542 565L543 566L542 565z"/>
<path style="fill:#706e74; stroke:none;" d="M966 565L967 566L966 565z"/>
<path style="fill:#57545a; stroke:none;" d="M182.333 566.667C182.278 566.722 182.222 567.778 182.667 567.333C182.722 567.278 182.778 566.222 182.333 566.667z"/>
<path style="fill:#646167; stroke:none;" d="M375 566L376 567L375 566M546 566L547 567L546 566M376 568L377 569L376 568M395 568L396 569L395 568z"/>
<path style="fill:#716e75; stroke:none;" d="M202 569L203 570L202 569z"/>
<path style="fill:#716e74; stroke:none;" d="M396 570L397 571L396 570z"/>
<path style="fill:#646167; stroke:none;" d="M430 570L431 571L430 570z"/>
<path style="fill:#646268; stroke:none;" d="M448 570L449 571L448 570z"/>
<path style="fill:#646167; stroke:none;" d="M181 571L182 572L181 571z"/>
<path style="fill:#646268; stroke:none;" d="M250 571L250 577C250.951 574.715 250.951 573.285 250 571M507 571L508 572L507 571z"/>
<path style="fill:#716e74; stroke:none;" d="M514 574L515 575L514 574z"/>
<path style="fill:#646167; stroke:none;" d="M966 574L966 578C966.71 576.24 966.71 575.759 966 574z"/>
<path style="fill:#4b474e; stroke:none;" d="M231 575L231 579C231.71 577.24 231.71 576.76 231 575z"/>
<path style="fill:#646167; stroke:none;" d="M379 575L380 576L379 575M398 575L399 576L398 575z"/>
<path style="fill:#646268; stroke:none;" d="M200 577L201 578L200 577z"/>
<path style="fill:#646167; stroke:none;" d="M380 577L381 578L380 577z"/>
<path style="fill:#716e74; stroke:none;" d="M399 577L400 578L399 577z"/>
<path style="fill:#646167; stroke:none;" d="M427 577L428 578L427 577z"/>
<path style="fill:#4b484e; stroke:none;" d="M891 577L891 580C891.696 578.446 891.696 578.554 891 577z"/>
<path style="fill:#58555b; stroke:none;" d="M1093.33 578.667C1093.28 578.722 1093.22 579.778 1093.67 579.333C1093.72 579.278 1093.78 578.222 1093.33 578.667z"/>
<path style="fill:#646268; stroke:none;" d="M535 579L536 580L535 579z"/>
<path style="fill:#57545a; stroke:none;" d="M872.333 579.667C872.278 579.722 872.222 580.778 872.667 580.333C872.722 580.278 872.778 579.222 872.333 579.667z"/>
<path style="fill:#646167; stroke:none;" d="M178 580L179 581L178 580z"/>
<path style="fill:#646268; stroke:none;" d="M199 580L200 581L199 580z"/>
<path style="fill:#4b474e; stroke:none;" d="M539.667 580.333C539.222 580.778 540.278 580.722 540.333 580.667C540.778 580.222 539.722 580.278 539.667 580.333z"/>
<path style="fill:#646268; stroke:none;" d="M443 581L444 582L443 581M544 581L545 582L544 581z"/>
<path style="fill:#646167; stroke:none;" d="M576 581L577 582L576 581M401 582L402 583L401 582M1074 582L1075 583L1074 582M383 584L384 585L383 584z"/>
<path style="fill:#716e74; stroke:none;" d="M402 584L403 585L402 584z"/>
<path style="fill:#646268; stroke:none;" d="M553 584L554 585L553 584z"/>
<path style="fill:#646167; stroke:none;" d="M578 584L579 585L578 584z"/>
<path style="fill:#4b484e; stroke:none;" d="M892.333 584.667C892.278 584.722 892.222 585.778 892.667 585.333C892.722 585.278 892.778 584.222 892.333 584.667z"/>
<path style="fill:#4b474e; stroke:none;" d="M965.333 584.667C965.278 584.722 965.222 585.778 965.667 585.333C965.722 585.278 965.778 584.222 965.333 584.667z"/>
<path style="fill:#706e74; stroke:none;" d="M232 586L233 587L232 586z"/>
<path style="fill:#646167; stroke:none;" d="M384 586L385 587L384 586z"/>
<path style="fill:#716e75; stroke:none;" d="M579 586L580 587L579 586z"/>
<path style="fill:#706e74; stroke:none;" d="M1075 588L1076 589L1075 588z"/>
<path style="fill:#646167; stroke:none;" d="M404 589L405 590L404 589M1095 589L1096 590L1095 589z"/>
<path style="fill:#646268; stroke:none;" d="M439 590L440 591L439 590z"/>
<path style="fill:#716e75; stroke:none;" d="M253 591L254 592L253 591z"/>
<path style="fill:#646167; stroke:none;" d="M874 591L875 592L874 591M963 592L964 593L963 592z"/>
<path style="fill:#706e74; stroke:none;" d="M1076 592L1077 593L1076 592z"/>
<path style="fill:#646167; stroke:none;" d="M1096 592L1097 593L1096 592M387 593L388 594L387 593z"/>
<path style="fill:#706e74; stroke:none;" d="M420 593L421 594L420 593z"/>
<path style="fill:#646167; stroke:none;" d="M562 593L563 594L562 593z"/>
<path style="fill:#58555b; stroke:none;" d="M581.333 593.667C581.278 593.722 581.222 594.778 581.667 594.333C581.722 594.278 581.778 593.222 581.333 593.667z"/>
<path style="fill:#646167; stroke:none;" d="M875 594L876 595L875 594z"/>
<path style="fill:#716e74; stroke:none;" d="M895 594L896 595L895 594z"/>
<path style="fill:#646167; stroke:none;" d="M388 595L389 596L388 595M1077 595L1078 596L1077 595z"/>
<path style="fill:#716e75; stroke:none;" d="M255 596L256 597L255 596z"/>
<path style="fill:#646167; stroke:none;" d="M407 596L408 597L407 596z"/>
<path style="fill:#4b474e; stroke:none;" d="M563 597L563 601C563.71 599.24 563.71 598.76 563 597z"/>
<path style="fill:#646167; stroke:none;" d="M876 597L877 598L876 597z"/>
<path style="fill:#716e74; stroke:none;" d="M256 598L257 599L256 598z"/>
<path style="fill:#646167; stroke:none;" d="M236 599L237 600L236 599z"/>
<path style="fill:#4b484e; stroke:none;" d="M581.333 599.667C581.278 599.722 581.222 600.778 581.667 600.333C581.722 600.278 581.778 599.222 581.333 599.667z"/>
<path style="fill:#646167; stroke:none;" d="M417 600L418 601L417 600M898 600L899 601L898 600M1079 600L1080 601L1079 600M1100 600L1101 601L1100 600M237 601L238 602L237 601M258 601L259 602L258 601z"/>
<path style="fill:#646268; stroke:none;" d="M434 601L435 602L434 601M581.333 601.667C581.278 601.722 581.222 602.778 581.667 602.333C581.722 602.278 581.778 601.222 581.333 601.667z"/>
<path style="fill:#646167; stroke:none;" d="M391 602L392 603L391 602M1080 602L1081 603L1080 602M159 603L160 604L159 603M238 603L239 604L238 603M410 603L411 604L410 603M392 604L393 605L392 604M562 604L563 605L562 604z"/>
<path style="fill:#716e74; stroke:none;" d="M1081 604L1082 605L1081 604z"/>
<path style="fill:#646167; stroke:none;" d="M491 605L492 606L491 605M1169 605L1170 606L1169 605M154 606L155 607L154 606M414 607L415 608L414 607z"/>
<path style="fill:#706e74; stroke:none;" d="M490 607L491 608L490 607z"/>
<path style="fill:#646167; stroke:none;" d="M499 607L500 608L499 607M881 607L882 608L881 607z"/>
<path style="fill:#716e74; stroke:none;" d="M904 607L905 608L904 607z"/>
<path style="fill:#646167; stroke:none;" d="M1083 607L1084 608L1083 607M241 608L242 609L241 608z"/>
<path style="fill:#716e74; stroke:none;" d="M953 608L954 609L953 608z"/>
<path style="fill:#646167; stroke:none;" d="M1164 608L1165 609L1164 608M966 609L967 610L966 609M1162 609L1163 610L1162 609M334 610L335 611L334 610z"/>
<path style="fill:#716e75; stroke:none;" d="M430 610L431 611L430 610z"/>
<path style="fill:#646167; stroke:none;" d="M883 610L884 611L883 610M1160 610L1161 611L1160 610z"/>
<path style="fill:#716e74; stroke:none;" d="M269 611L270 612L269 611z"/>
<path style="fill:#646167; stroke:none;" d="M395 611L396 612L395 611M1158 611L1159 612L1158 611M335 612L336 613L335 612M555 612L556 613L555 612M80 613L81 614L80 613z"/>
<path style="fill:#4b474e; stroke:none;" d="M127 613C128.248 613.685 128.548 613.749 130 614C128.752 613.315 128.452 613.251 127 613z"/>
<path style="fill:#716e74; stroke:none;" d="M274 613L275 614L274 613z"/>
<path style="fill:#646167; stroke:none;" d="M310 613L311 614L310 613M396 613L397 614L396 613M1178 613L1179 614L1178 613z"/>
<path style="fill:#646268; stroke:none;" d="M174 614L175 615L174 614z"/>
<path style="fill:#646167; stroke:none;" d="M277 614L278 615L277 614z"/>
<path style="fill:#716e74; stroke:none;" d="M306 614L307 615L306 614z"/>
<path style="fill:#646167; stroke:none;" d="M336 614L337 615L336 614z"/>
<path style="fill:#716e74; stroke:none;" d="M516 614L517 615L516 614z"/>
<path style="fill:#646167; stroke:none;" d="M551 614L552 615L551 614z"/>
<path style="fill:#716e74; stroke:none;" d="M1120 614L1121 615L1120 614z"/>
<path style="fill:#4b474e; stroke:none;" d="M301.667 615.333C301.222 615.778 302.278 615.722 302.333 615.667C302.778 615.222 301.722 615.278 301.667 615.333z"/>
<path style="fill:#646167; stroke:none;" d="M520 615L521 616L520 615z"/>
<path style="fill:#716e74; stroke:none;" d="M920.667 615.333C920.222 615.778 921.278 615.722 921.333 615.667C921.778 615.222 920.722 615.278 920.667 615.333z"/>
<path style="fill:#57545a; stroke:none;" d="M939.667 615.333C939.222 615.778 940.278 615.722 940.333 615.667C940.778 615.222 939.722 615.278 939.667 615.333z"/>
<path style="fill:#716e74; stroke:none;" d="M1124.67 615.333C1124.22 615.778 1125.28 615.722 1125.33 615.667C1125.78 615.222 1124.72 615.278 1124.67 615.333z"/>
<path style="fill:#646167; stroke:none;" d="M1179 615L1180 616L1179 615z"/>
<path style="fill:#646268; stroke:none;" d="M171 616L172 617L171 616z"/>
<path style="fill:#716e74; stroke:none;" d="M248 616L249 617L248 616z"/>
<path style="fill:#706e74; stroke:none;" d="M486 616L487 617L486 616z"/>
<path style="fill:#646167; stroke:none;" d="M527 616C528.248 616.685 528.548 616.749 530 617C528.752 616.315 528.452 616.251 527 616M541.667 616.333C541.222 616.778 542.278 616.722 542.333 616.667C542.778 616.222 541.722 616.278 541.667 616.333z"/>
<path style="fill:#716e74; stroke:none;" d="M575 616L576 617L575 616z"/>
<path style="fill:#646268; stroke:none;" d="M335 617L336 618L335 617z"/>
<path style="fill:#646167; stroke:none;" d="M889 617L890 618L889 617M399 620L400 621L399 620z"/>
<path style="fill:#646268; stroke:none;" d="M425 621L426 622L425 621z"/>
<path style="fill:#706e74; stroke:none;" d="M493 621L494 622L493 621z"/>
<path style="fill:#646167; stroke:none;" d="M400 622L401 623L400 622z"/>
<path style="fill:#646268; stroke:none;" d="M1170 622L1171 623L1170 622z"/>
<path style="fill:#716e74; stroke:none;" d="M953 623L954 624L953 623z"/>
<path style="fill:#646268; stroke:none;" d="M1168 623L1169 624L1168 623M154 624L155 625L154 624M565 624L566 625L565 624z"/>
<path style="fill:#716f75; stroke:none;" d="M1166 624L1167 625L1166 624z"/>
<path style="fill:#646268; stroke:none;" d="M501 625L502 626L501 625M563 625L564 626L563 625M264 626L265 627L264 626M561 626L562 627L561 626M1161 626L1162 627L1161 626M142 627L143 628L142 627z"/>
<path style="fill:#716e74; stroke:none;" d="M1109 627L1110 628L1109 627z"/>
<path style="fill:#646268; stroke:none;" d="M1158 627L1159 628L1158 627z"/>
<path style="fill:#716e74; stroke:none;" d="M136 628L137 629L136 628z"/>
<path style="fill:#646268; stroke:none;" d="M312 628L313 629L312 628z"/>
<path style="fill:#716e74; stroke:none;" d="M907 628L908 629L907 628z"/>
<path style="fill:#646268; stroke:none;" d="M943 628L944 629L943 628z"/>
<path style="fill:#4b484e; stroke:none;" d="M61 629C66.7073 631.395 74.846 630 81 630L123 630C117.293 627.605 109.154 629 103 629L61 629z"/>
<path style="fill:#646268; stroke:none;" d="M123 629C124.248 629.685 124.548 629.749 126 630C124.752 629.315 124.452 629.251 123 629z"/>
<path style="fill:#716e74; stroke:none;" d="M308 629L309 630L308 629z"/>
<path style="fill:#4b484e; stroke:none;" d="M403 629C408.469 631.295 416.099 630 422 630C416.531 627.705 408.901 629 403 629z"/>
<path style="fill:#57555b; stroke:none;" d="M514.667 629.333C514.222 629.778 515.278 629.722 515.333 629.667C515.778 629.222 514.722 629.278 514.667 629.333z"/>
<path style="fill:#4b484e; stroke:none;" d="M679 629C684.469 631.295 692.099 630 698 630C692.531 627.705 684.901 629 679 629M738 629C743.469 631.295 751.099 630 757 630C751.531 627.705 743.901 629 738 629M823 629C828.469 631.295 836.099 630 842 630C836.531 627.705 828.901 629 823 629M967 629C972.222 631.191 979.368 630 985 630C979.778 627.809 972.632 629 967 629M1024 629C1029.47 631.295 1037.1 630 1043 630C1037.53 627.705 1029.9 629 1024 629z"/>
<path style="fill:#4b474e; stroke:none;" d="M1116.67 629.333C1116.22 629.777 1117.28 629.723 1117.33 629.667C1117.78 629.222 1116.72 629.278 1116.67 629.333z"/>
<path style="fill:#57555b; stroke:none;" d="M279.667 630.333C279.222 630.778 280.278 630.722 280.333 630.667C280.778 630.222 279.722 630.278 279.667 630.333M301.667 630.333C301.222 630.778 302.278 630.722 302.333 630.667C302.778 630.222 301.722 630.278 301.667 630.333z"/>
<path style="fill:#646268; stroke:none;" d="M520.667 630.333C520.222 630.778 521.278 630.722 521.333 630.667C521.778 630.222 520.722 630.278 520.667 630.333z"/>
<path style="fill:#716e74; stroke:none;" d="M546 630L547 631L546 630z"/>
<path style="fill:#57555b; stroke:none;" d="M915.667 630.333C915.222 630.778 916.278 630.722 916.333 630.667C916.778 630.222 915.722 630.278 915.667 630.333z"/>
<path style="fill:#716e74; stroke:none;" d="M935 630L936 631L935 630z"/>
<path style="fill:#4b484e; stroke:none;" d="M1122.67 630.333C1122.22 630.778 1123.28 630.722 1123.33 630.667C1123.78 630.222 1122.72 630.278 1122.67 630.333M1143 630C1144.25 630.685 1144.55 630.749 1146 631C1144.75 630.315 1144.45 630.251 1143 630z"/>
<path style="fill:#6e6c72; stroke:none;" d="M51 741C51.1137 745.837 52.013 750.227 56.1049 753.347C64.0002 759.368 79.6898 756.342 83.5162 746.996C84.3028 745.075 84.7269 743.079 84.6165 741C83.743 724.554 65.6629 731.71 58.7431 721.867C53.3374 714.177 64.3677 708.164 70.9846 710.742C75.9999 712.697 77.1164 716.805 83 717C82.1323 713.391 81.0163 710.018 77.892 707.703C69.5499 701.522 53.472 704.982 51.348 716C51.0332 717.633 51.0472 719.365 51.3441 720.999C53.8754 734.93 70.9716 728.402 77.2569 738.044C82.7724 746.505 70.0361 752.936 63.0401 749.99C57.5516 747.679 57.3903 741.509 51 741M122 705.653C112.142 708.744 109.015 718.817 109 728C108.992 733.131 108.793 738.152 110.765 743C114.818 752.966 125.529 758.689 136 755.146C143.183 752.715 146.968 745.924 148.841 739C152.986 723.679 147.075 705.002 129 705.002C126.668 705.002 124.251 704.947 122 705.653M867 705.533C857.69 707.797 853.241 718.216 853.015 727C852.617 742.456 860.502 759.855 879 755.606C889.383 753.22 893.882 741.516 893.996 732C894.06 726.628 894.282 721.018 892.03 716C887.678 706.303 876.816 703.146 867 705.533M175 706L175 755L181 755L181 732L200 732L200 727L181 727L181 711L201 711L201 706L175 706M223 706L223 711L238 711L238 755L244 755L244 711L259 711L259 706L223 706M278 706C281.773 722.458 287.585 738.455 291 755L297 755C299.774 741.558 302.568 726.622 308 714C311.742 727.286 316.158 741.321 318 755C325.371 754.755 325.741 749.26 327.371 743C330.551 730.786 335.313 718.528 337 706L331 706C329.229 719.15 324.529 731.958 322 745C316.429 733.901 313.589 718.302 312 706C309.77 706.008 306.615 705.553 304.728 707.028C302.14 709.049 302.026 714.048 301.349 717C299.231 726.227 295.772 735.547 295 745L293 745C292.299 736.197 289.509 727.541 287.373 719C286.53 715.625 286.184 710.322 283.862 707.603C282.386 705.875 280.05 706.068 278 706M356 755C363.39 754.754 365.016 748.572 366 742C372.02 742 383.505 739.787 388.725 743.028C394.937 746.884 391.925 754.698 401 755C396.81 742.146 391.421 729.552 386.4 717C384.856 713.14 383.424 705.78 378.012 706.207C372.86 706.613 371.692 714.12 370.189 718C365.429 730.29 360.223 742.517 356 755M424 706L424 755L429 755C429 749.602 426.952 738.927 430.028 734.318C432.825 730.126 441.509 732.045 444.297 735.303C448.163 739.821 448.754 749.286 449 755L455 755C453.932 746.728 454.004 734.393 446 730C453.454 724.3 458.926 711.907 446.996 707.009C440.468 704.329 430.961 706 424 706M480 706L480 755L508 755L508 750L485 750C485 745.683 483.541 738.044 486.028 734.318C489.115 729.692 502.081 732 507 732L507 727L485 727L485 711L507 711L507 706L480 706M577 706L577 755C585.884 755 597.339 756.896 604.907 751.197C616.604 742.388 616.552 716.994 603.985 708.995C596.41 704.173 585.563 706 577 706M639 706L639 755L667 755L667 750L644 750L644 732L666 732L666 727L644 727L644 711L666 711L666 706L639 706M689 706C691.976 718.864 697.161 731.472 701.333 744C702.673 748.024 703.714 756.214 709.78 754.663C713.97 753.592 714.549 746.438 715.67 743C719.698 730.64 723.978 718.362 728 706L721 706C717.871 719.524 712.79 732.644 709 746C705.185 739.8 703.616 731.968 701.576 725C699.714 718.644 697.346 712.502 696 706L689 706M751 706L751 755L779 755L779 750L756 750L756 732L778 732L778 727L756 727L756 711L778 711L778 706L751 706M805 706L805 755L831 755L831 750C826.198 750 815.24 752.034 811.603 748.397C809.019 745.812 810 740.306 810 737L810 706L805 706M920 706L920 755L925 755L925 734C931.291 734 939.35 734.787 944.811 730.992C952.207 725.851 951.309 712.67 943.956 708.009C937.692 704.039 927.124 706 920 706M975 706L975 755L981 755L981 712C985.535 722.232 988.461 733.382 992 744C993.837 749.51 994.464 754.492 1001 755C1004.4 740.325 1011.6 726.698 1015 712C1016.52 717.146 1016 722.661 1016 728L1016 755L1022 755L1022 706C1019.25 706 1015.04 705.273 1012.7 707.028C1009.86 709.162 1009.07 714.804 1008 718C1004.91 727.257 1002.55 737.358 998 746C995.322 736.564 992.101 727.303 989 718C987.935 714.804 987.144 709.162 984.298 707.028C981.958 705.273 977.747 706 975 706M1048 706L1048 755L1077 755L1077 750L1054 750L1054 732L1075 732L1075 727L1054 727L1054 711L1076 711L1076 706L1048 706M1103 706L1103 755L1108 755L1108 715C1115.04 721.971 1118.83 734.165 1123.25 743C1124.9 746.306 1126.5 751.782 1129.64 753.972C1131.88 755.54 1135.42 754.998 1138 755L1138 706L1132 706L1132 746C1126.92 737.304 1122.75 728.006 1118.25 719C1116.47 715.446 1114.73 709.378 1111.36 707.028C1109.12 705.46 1105.58 706.002 1103 706M1161 706L1161 711L1176 711L1176 755L1182 755L1182 711L1197 711L1197 706L1161 706z"/>
<path style="fill:#000000; stroke:none;" d="M125.001 710.533C107.156 714.885 111.499 754.827 132 750.606C151.103 746.672 148.102 704.9 125.001 710.533M869 710.653C851.311 716.209 856.725 756.867 877.999 750.196C895.335 744.76 891.57 703.564 869 710.653M429 711L429 727C433.819 727 440.471 728.138 444.775 725.543C449.552 722.665 449.68 715.147 444.786 712.318C440.499 709.84 433.767 711 429 711M582 711L582 750C588.351 750 595.36 750.812 600.815 746.867C610.359 739.963 610.499 720.646 600.906 713.703C595.637 709.89 588.124 711 582 711M925 711C925 715.166 923.327 723.989 926.028 727.397C927.788 729.618 931.595 728.943 934 728.56C936.784 728.117 940.272 727.558 942.258 725.347C947.182 719.864 942.235 712.057 935.999 711.189C932.409 710.689 928.618 711 925 711M378 713C374.148 720.31 371.177 729.025 369 737L387 737C385.885 729.451 382.58 719.121 378 713z"/>
</svg>
