<svg width="6" height="6" viewBox="0 0 6 6" fill="none" xmlns="http://www.w3.org/2000/svg">
<path d="M3.00001 0C3.09946 0 3.19484 0.0395088 3.26517 0.109835C3.3355 0.180161 3.37501 0.275544 3.37501 0.375V2.3505L5.08576 1.36275C5.12842 1.33774 5.17561 1.32141 5.22461 1.31471C5.27361 1.30801 5.32345 1.31107 5.37126 1.32371C5.41907 1.33635 5.46391 1.35833 5.5032 1.38837C5.54248 1.41841 5.57544 1.45592 5.60017 1.49875C5.62489 1.54158 5.64091 1.58888 5.64728 1.63792C5.65366 1.68696 5.65027 1.73678 5.63731 1.78451C5.62435 1.83224 5.60208 1.87693 5.57178 1.91602C5.54148 1.9551 5.50375 1.98781 5.46076 2.01225L3.75001 3L5.46076 3.98775C5.50375 4.01219 5.54148 4.0449 5.57178 4.08398C5.60208 4.12307 5.62435 4.16776 5.63731 4.21549C5.65027 4.26322 5.65366 4.31304 5.64728 4.36208C5.64091 4.41112 5.62489 4.45842 5.60017 4.50125C5.57544 4.54408 5.54248 4.58159 5.5032 4.61163C5.46391 4.64167 5.41907 4.66365 5.37126 4.67629C5.32345 4.68893 5.27361 4.69199 5.22461 4.68529C5.17561 4.67859 5.12842 4.66226 5.08576 4.63725L3.37501 3.6495V5.625C3.37501 5.72446 3.3355 5.81984 3.26517 5.89016C3.19484 5.96049 3.09946 6 3.00001 6C2.90055 6 2.80517 5.96049 2.73484 5.89016C2.66451 5.81984 2.62501 5.72446 2.62501 5.625V3.6495L0.914256 4.63725C0.871592 4.66226 0.824402 4.67859 0.775403 4.68529C0.726404 4.69199 0.676563 4.68893 0.628751 4.67629C0.580939 4.66365 0.536099 4.64167 0.496814 4.61163C0.457528 4.58159 0.424573 4.54408 0.399845 4.50125C0.375117 4.45842 0.359104 4.41112 0.35273 4.36208C0.346355 4.31304 0.349745 4.26322 0.362702 4.21549C0.37566 4.16776 0.39793 4.12307 0.428231 4.08398C0.458531 4.0449 0.496264 4.01219 0.539256 3.98775L2.25001 3L0.539256 2.01225C0.453828 1.96217 0.391678 1.88033 0.366367 1.78459C0.341056 1.68886 0.354639 1.587 0.404153 1.50124C0.453667 1.41548 0.535091 1.35279 0.630657 1.32684C0.726223 1.3009 0.828172 1.31381 0.914256 1.36275L2.62501 2.3505V0.375C2.62501 0.275544 2.66451 0.180161 2.73484 0.109835C2.80517 0.0395088 2.90055 0 3.00001 0V0Z" fill="#CF1322"/>
</svg>
